<svg width="182" height="44" viewBox="0 0 182 44" fill="none" xmlns="http://www.w3.org/2000/svg">
<path d="M 62 33.8 V 11.7 H 77 V 15.8 H 67 V 20.2 H 75.9 V 24.3 H 67 V 29.6 H 77.7 V 33.8 H 62 Z" fill="#322153"/>
<path d="M 81.5 25.2 C 81.5 23.9 81.7 22.8 82.1 21.7 C 82.5 20.6 83 19.7 83.8 18.9 C 84.5 18.1 85.4 17.5 86.5 17 C 87.6 16.5 88.8 16.3 90.2 16.3 C 91.1 16.3 91.9 16.4 92.6 16.5 C 93.4 16.7 94.1 16.9 94.8 17.2 L 93.8 21 C 93.4 20.9 92.9 20.7 92.3 20.6 C 91.8 20.4 91.2 20.4 90.5 20.4 C 89.1 20.4 88.1 20.8 87.4 21.7 C 86.7 22.6 86.4 23.7 86.4 25.2 C 86.4 26.7 86.7 27.8 87.3 28.7 C 88 29.5 89.1 29.9 90.7 29.9 C 91.3 29.9 91.9 29.9 92.6 29.8 C 93.3 29.7 93.9 29.5 94.4 29.2 L 95.1 33.2 C 94.5 33.4 93.8 33.6 93 33.8 C 92.2 33.9 91.3 34 90.3 34 C 88.7 34 87.4 33.8 86.3 33.3 C 85.2 32.9 84.3 32.2 83.5 31.5 C 82.8 30.7 82.3 29.7 82 28.7 C 81.7 27.6 81.5 26.4 81.5 25.2 Z" fill="#322153"/>
<path d="M 113.2 25.1 C 113.2 26.4 113 27.7 112.6 28.8 C 112.3 29.9 111.7 30.8 111 31.6 C 110.3 32.4 109.4 33 108.4 33.4 C 107.4 33.8 106.2 34 105 34 C 103.7 34 102.6 33.8 101.6 33.4 C 100.6 33 99.7 32.4 99 31.6 C 98.3 30.8 97.7 29.9 97.3 28.8 C 96.9 27.7 96.7 26.4 96.7 25.1 C 96.7 23.8 96.9 22.6 97.3 21.5 C 97.7 20.4 98.3 19.5 99 18.7 C 99.8 18 100.6 17.4 101.6 16.9 C 102.7 16.5 103.8 16.3 105 16.3 C 106.2 16.3 107.3 16.5 108.3 16.9 C 109.3 17.4 110.2 18 110.9 18.7 C 111.6 19.5 112.2 20.4 112.6 21.5 C 113 22.6 113.2 23.8 113.2 25.1 Z M 108.4 25.1 C 108.4 23.6 108.1 22.5 107.5 21.7 C 106.9 20.8 106.1 20.4 105 20.4 C 103.9 20.4 103 20.8 102.4 21.7 C 101.8 22.5 101.5 23.6 101.5 25.1 C 101.5 26.6 101.8 27.8 102.4 28.6 C 103 29.5 103.9 29.9 105 29.9 C 106.1 29.9 106.9 29.5 107.5 28.6 C 108.1 27.8 108.4 26.6 108.4 25.1 Z" fill="#322153"/>
<path d="M 132.3 34.2 C 130.9 34.1 129.8 34 128.9 33.7 C 128.1 33.4 127.4 33 126.9 32.6 C 126.4 32 126 31.4 125.9 30.7 C 125.7 30 125.6 29.2 125.6 28.3 V 9.8 L 130.4 9 V 27.3 C 130.4 27.8 130.4 28.1 130.5 28.5 C 130.5 28.8 130.6 29.1 130.8 29.4 C 131 29.6 131.3 29.8 131.6 29.9 C 132 30.1 132.4 30.2 133 30.2 L 132.3 34.2 Z" fill="#322153"/>
<path d="M 134.7 25.5 C 134.7 24.1 134.9 22.7 135.3 21.6 C 135.8 20.5 136.4 19.6 137.2 18.8 C 137.9 18.1 138.8 17.5 139.7 17.1 C 140.7 16.7 141.7 16.6 142.7 16.6 C 145.1 16.6 147 17.3 148.4 18.8 C 149.8 20.2 150.5 22.4 150.5 25.2 C 150.5 25.5 150.5 25.8 150.4 26.1 C 150.4 26.4 150.4 26.7 150.4 27 H 139.6 C 139.7 28 140.1 28.7 140.9 29.3 C 141.7 29.9 142.8 30.2 144.2 30.2 C 145.1 30.2 145.9 30.1 146.8 30 C 147.6 29.8 148.3 29.6 148.8 29.4 L 149.5 33.2 C 149.2 33.4 148.9 33.5 148.5 33.6 C 148 33.7 147.5 33.8 147 33.9 C 146.5 34 145.9 34.1 145.3 34.2 C 144.8 34.2 144.2 34.3 143.6 34.3 C 142 34.3 140.7 34.1 139.6 33.6 C 138.5 33.2 137.6 32.6 136.8 31.8 C 136.1 31 135.5 30.1 135.2 29 C 134.8 27.9 134.7 26.8 134.7 25.5 Z M 145.9 23.7 C 145.8 23.3 145.8 22.9 145.6 22.5 C 145.5 22.2 145.3 21.8 145.1 21.5 C 144.9 21.2 144.5 21 144.2 20.8 C 143.8 20.6 143.3 20.5 142.8 20.5 C 142.3 20.5 141.8 20.6 141.4 20.8 C 141 20.9 140.7 21.2 140.5 21.5 C 140.2 21.8 140 22.1 139.8 22.5 C 139.7 22.9 139.6 23.3 139.6 23.7 H 145.9 Z" fill="#322153"/>
<path d="M 169.3 13.1 L 174 12.3 V 17.3 H 179.7 V 21.2 H 174 V 27.2 C 174 28.2 174.2 29 174.5 29.6 C 174.9 30.1 175.6 30.4 176.7 30.4 C 177.2 30.4 177.7 30.4 178.2 30.3 C 178.8 30.2 179.3 30.1 179.7 29.9 L 180.4 33.6 C 179.8 33.8 179.2 34.1 178.5 34.2 C 177.8 34.4 176.9 34.5 175.9 34.5 C 174.6 34.5 173.5 34.3 172.7 34 C 171.8 33.6 171.1 33.1 170.6 32.5 C 170.1 31.9 169.8 31.1 169.5 30.2 C 169.3 29.3 169.3 28.3 169.3 27.2 V 13.1 Z" fill="#322153"/>
<path d="M 14.6 1.8 L 10.1 10.6 C 9.8 11.2 10 11.9 10.5 12.2 L 17.7 16.4 C 18.2 16.7 18.9 16.5 19.2 16 L 28 0 H 17.6 C 16.4 0 15.2 0.7 14.6 1.8 Z" fill="#29a361"/>
<path d="M 28 0 L 19.2 15.9 C 18.9 16.5 18.2 16.7 17.7 16.4 L 15.8 15.3 C 16.3 15.4 16.7 15.2 17 14.7 L 25 0 H 28 Z" fill="#248f55"/>
<path d="M 37.6 8.5 L 34.4 1.9 C 33.8 0.8 32.6 0 31.4 0 H 22.2 L 29.2 12.3 C 29.2 12.3 29.2 12.3 29.2 12.3 C 28.7 12.6 28.7 13.2 29.2 13.4 L 35.2 15.8 C 35.5 15.9 35.8 15.8 35.9 15.5 L 38.3 9.2 C 38.4 8.7 38 8.3 37.6 8.5 Z" fill="#34cb79"/>
<path d="M 38.3 9.2 L 35.9 15.5 C 35.8 15.8 35.5 15.9 35.2 15.8 L 33.4 15.1 L 35.6 9.2 C 35.7 8.8 35.5 8.5 35.2 8.4 C 35 8.4 34.7 8.2 34.6 7.9 L 31.7 1.9 C 31.1 0.8 30 0 28.7 0 H 31.4 C 32.6 0 33.8 0.8 34.4 1.9 L 37.6 8.5 C 38 8.3 38.4 8.7 38.3 9.2 Z" fill="#2fb86e"/>
<path d="M 31.5 33.6 C 31.4 33.2 30.9 33 30.6 33.3 L 25.9 38.2 C 25.7 38.4 25.7 38.7 25.9 38.9 L 30.7 43.9 C 30.9 44.1 31.4 44 31.5 43.6 H 38.5 C 39.7 43.6 40.9 42.9 41.5 41.7 L 45.5 33.6 H 31.5 V 33.6 Z" fill="#29a361"/>
<path d="M 37.4 33.6 L 39.6 37.1 C 40.1 37.9 40.2 38.9 39.8 39.8 L 38.8 41.7 C 38.3 42.9 37.1 43.6 35.8 43.6 H 38.5 C 39.7 43.6 40.9 42.9 41.5 41.7 L 45.5 33.6 H 37.4 V 33.6 Z" fill="#248f55"/>
<path d="M 21.9 42.7 V 34 C 21.9 33.4 21.4 32.9 20.8 32.9 H 2.1 L 6.9 42 C 7.5 43.2 8.6 43.9 9.9 43.9 H 20.8 C 21.4 43.9 21.9 43.3 21.9 42.7 Z" fill="#29a361"/>
<path d="M 10 32.9 L 5.9 40.1 L 2.1 32.9 H 10 Z" fill="#248f55"/>
<path d="M 21.9 34 V 42.7 C 21.9 43.3 21.4 43.9 20.8 43.9 H 17.8 C 18.4 43.9 19 43.3 19 42.7 V 34 C 19 33.4 18.4 32.9 17.8 32.9 H 20.8 C 21.4 32.9 21.9 33.4 21.9 34 Z" fill="#248f55"/>
<path d="M 12.8 25.2 L 11.9 18.6 C 11.9 18.3 11.6 18.1 11.3 18.1 L 4.9 19 C 4.5 19.1 4.3 19.7 4.6 20 L 0.6 26 C -0.1 27.1 -0.2 28.5 0.4 29.7 L 4.8 38 L 11.9 25.8 C 11.9 25.8 11.9 25.8 11.9 25.8 C 12.3 26.1 12.9 25.7 12.8 25.2 Z" fill="#34cb79"/>
<path d="M 11.9 25.8 C 11.9 25.8 11.9 25.8 11.9 25.8 L 4.8 38 L 3.3 35.2 L 9.1 25.3 L 9.2 25 C 9.3 24.8 9.5 24.8 9.7 24.8 C 9.7 24.8 9.7 24.8 9.7 24.8 C 10 24.9 10.4 24.6 10.3 24.1 L 9.6 18.4 L 11.3 18.1 C 11.6 18.1 11.9 18.3 11.9 18.6 L 12.8 25.2 C 12.9 25.7 12.3 26.1 11.9 25.8 Z" fill="#2fb86e"/>
<path d="M 47.4 25.6 L 41.9 17.3 C 41.6 16.8 40.9 16.7 40.4 17 L 33.3 21.2 C 32.7 21.6 32.5 22.3 32.9 22.9 L 43 38.7 L 47.6 29.2 C 48.2 28 48.1 26.6 47.4 25.6 Z" fill="#34cb79"/>
<path d="M 47.6 29.2 L 43 38.7 L 41.4 36.3 L 44.9 29.2 C 45.4 28 45.3 26.6 44.6 25.6 L 39.3 17.6 L 40.4 17 C 40.9 16.7 41.6 16.8 41.9 17.3 L 47.4 25.6 C 48.1 26.6 48.2 28 47.6 29.2 Z" fill="#2fb86e"/>
    <path d="M 152.8 25.2 C 152.8 23.9 153 22.8 153.4 21.7 C 153.8 20.6 154.4 19.7 155.1 18.9 C 155.9 18.1 156.8 17.5 157.8 17 C 158.9 16.5 160.1 16.3 161.5 16.3 C 162.4 16.3 163.2 16.4 163.9 16.5 C 164.7 16.7 165.4 16.9 166.1 17.2 L 165.1 21 C 164.7 20.9 164.2 20.7 163.7 20.6 C 163.1 20.4 162.5 20.4 161.9 20.4 C 160.5 20.4 159.4 20.8 158.7 21.7 C 158 22.6 157.7 23.7 157.7 25.2 C 157.7 26.7 158 27.8 158.6 28.7 C 159.3 29.5 160.4 29.9 162.1 29.9 C 162.6 29.9 163.2 29.9 163.9 29.8 C 164.6 29.7 165.2 29.5 165.7 29.2 L 166.4 33.2 C 165.9 33.4 165.2 33.6 164.3 33.8 C 163.5 33.9 162.6 34 161.6 34 C 160 34 158.7 33.8 157.6 33.3 C 156.5 32.9 155.6 32.2 154.9 31.5 C 154.1 30.7 153.6 29.7 153.3 28.7 C 153 27.6 152.8 26.4 152.8 25.2 Z" fill="#322153"/>
    <path d="M 123.1 34.2 C 121.7 34.1 120.6 34 119.7 33.7 C 118.9 33.4 118.2 33 117.7 32.6 C 117.2 32 116.8 31.4 116.6 30.7 C 116.5 30 116.4 29.2 116.4 28.3 V 9.8 L 121.2 9 V 27.3 C 121.2 27.8 121.2 28.1 121.3 28.5 C 121.3 28.8 121.4 29.1 121.6 29.4 C 121.8 29.6 122.1 29.8 122.4 29.9 C 122.7 30.1 123.2 30.2 123.8 30.2 L 123.1 34.2 Z" fill="#322153"/>
</svg>
